<svg viewBox="0 0 176.51261484343405 176.51261484343405" height="176.51261484343405" width="176.51261484343405">
  <g>
    <path
      d="M0 88.256c0-48.743 39.514-88.256 88.256-88.256 48.743 0 88.256 39.514 88.257 88.256 0 48.743-39.514 88.256-88.257 88.257-48.743 0-88.256-39.514-88.256-88.257zM88.256 169.975c45.132 0 81.719-36.587 81.719-81.719 0-45.132-36.587-81.719-81.719-81.718-45.132 0-81.719 36.587-81.718 81.718 0 45.132 36.587 81.719 81.718 81.719z"
      data-fill-palette-color="accent"
      fill="#8bd8bc"
      stroke="transparent"
    ></path>
    <ellipse
      rx="87.37374434749985"
      ry="87.37374434749985"
      cx="88.25630742171703"
      cy="88.25630742171703"
      fill="#8bd8bc"
      stroke="transparent"
      stroke-width="0"
      fill-opacity="1"
      data-fill-palette-color="accent"
    ></ellipse>
  </g>
  <g transform="matrix(1,0,0,1,37.18254475831,58.64360260273559)">
    <svg viewBox="0 0 102.14752532681405 59.22540963796287" height="59.22540963796287" width="102.14752532681405">
      <g>
        <svg
          xmlns="http://www.w3.org/2000/svg"
          xmlns:xlink="http://www.w3.org/1999/xlink"
          version="1.1"
          x="0"
          y="0"
          viewBox="5.499999046325684 21.399999618530273 89.22200012207031 51.73115539550781"
          enable-background="new 0 0 100 100"
          xml:space="preserve"
          height="59.22540963796287"
          width="102.14752532681405"
          class="icon-s-0"
          data-fill-palette-color="quaternary"
          id="s-0"
        >
          <path
            d="M33.548 64.857c0 0 2.077-1.039 1.731 1.212 1.472 0.521 3.549-1.299 4.069-2.684s2.77-5.193 3.29-6.405c0.519-1.212 3.809-8.917 4.674-10.042 0.866-1.125 1.819-3.462 2.078-3.896 0.26-0.433 1.384-2.164 0.952-3.896-0.432-1.732-0.432-5.108-1.039-6.58-0.606-1.471-0.606-3.723-0.52-4.674-0.952 1.558-2.77 7.792-4.155 13.072-0.433 1.991-1.038 7.011-4.328 10.734-2.251 2.944-2.77 4.502-2.857 4.762-0.086 0.26-1.125 2.942-2.164 3.029C34.413 60.356 33.028 63.386 33.548 64.857z"
            fill="#ffffff"
            data-fill-palette-color="quaternary"
          ></path>
          <path
            d="M52.246 43.043c0 0 1.299-1.039 0.692-3.896-0.605-2.857-0.952-7.186-1.472-7.878-0.519-0.692-1.19-5.281-1.027-6.58 0.162-1.298 0.768-3.289 0.768-3.289s0.779 2.077 1.473 3.203c0.692 1.125 5.454 9.35 6.146 11.081 0.691 1.731 1.817 4.761 2.423 5.454 0.606 0.692 1.473 0.52 1.473 0.52s0.692 0.779 1.038 2.51c0.347 1.731 1.472 6.406 1.991 8.051 0.519 1.645 2.511 7.531 2.511 7.531s-0.78 0.692-1.992 0.865c-1.211 0.174-4.501 1.385-4.501 2.338 0 0.952-1.211 1.298-1.904 1.558-0.692 0.26-1.558 1.653-3.289 1.649-1.732-0.004-11.168-0.61-11.774-0.437-0.605 0.173-2.526 0.614-2.864 0.437-0.338-0.177-2.243 0.042-2.243 0.042s0.174-0.046 0.866-1.777 3.376-3.895 3.809-5.28 1.645-6.926 3.549-8.917C49.822 48.236 52.246 43.043 52.246 43.043z"
            fill="#ffffff"
            data-fill-palette-color="quaternary"
          ></path>
          <path
            d="M28.354 66.849c0 0 0.346-2.683 0-3.289-0.347-0.606-1.212 1.645-1.212 1.645s-0.346-1.332-0.346-1.748-0.952-1.281-1.385-1.195c-0.433 0.086-4.068-0.433-4.068-0.433s3.098-1.213 3.583-1.559 1.957 0.261 2.477 0.692c0.52 0.433 0.347-0.433 0.173-1.212s-2.251-2.424-1.385-5.021c0.52 0.433 0.481 2.856 2.318 4.241 1.058 1.125 0 1.818 0 1.818s0.539 0.001 1.578-1.904c1.039-1.905 3.462-0.866 3.809-0.347 0.346 0.52-4.762 1.99-4.675 3.376 0.866 0.26 1.558 0.779 1.558 1.039s-1.991-0.173-1.991-0.173l0.606 1.471 0.52 1.951 1.125-0.652c0 0 1.678-0.856 2.874 0.61 1.195 1.207 1.542 1.814 6.216 1.295 3.809 0.086 10.994 0.864 14.37 0.691 3.376-0.172 10.388-0.087 10.647-1.298 0.26-1.212-2.857-2.425-1.731-3.117 1.126-0.691 4.588-1.273 5.974-2.281 1.386-1.007 1.353-1.718 0-2.046 1.646-0.52 10.302 0.951 11.081 1.211 0.778 0.26-4.329 2.856-11.081 3.55 0.779 1.125 4.068 1.211 4.848 1.385s5.8 2.126 5.8 2.621-12.032 1.794-20.603 1.708c-8.57-0.087-30.818-0.607-32.376-0.434-1.558 0.174-7.792 0.787-8.224 0.438C18.398 69.532 21.429 67.627 28.354 66.849z"
            fill="#ffffff"
            data-fill-palette-color="quaternary"
          ></path>
          <path
            d="M17.793 66.85c0 0-3.29 0.173-4.069-1.559-1.125 0.52-5.107 1.822-8.224 0.911 1.125 0.907 6.32 0.911 7.271 0C13.551 66.416 15.196 67.628 17.793 66.85z"
            fill="#ffffff"
            data-fill-palette-color="quaternary"
          ></path>
          <path
            d="M20.39 72.873c0 0-3.985 0.174-4.929-1.558-1.362 0.519-6.186 1.821-9.961 0.91 1.363 0.907 7.655 0.911 8.808 0C15.251 72.44 17.244 73.652 20.39 72.873z"
            fill="#ffffff"
            data-fill-palette-color="quaternary"
          ></path>
          <path
            d="M93.683 60.957c0 0-3.167 0.174-3.918-1.558-1.082 0.519-4.919 1.821-7.919 0.91 1.085 0.907 6.086 0.911 7.003 0C89.599 60.524 91.183 61.736 93.683 60.957z"
            fill="#ffffff"
            data-fill-palette-color="quaternary"
          ></path>
          <path
            d="M94.722 64.902c0 0-4.751 0.174-5.877-1.558-1.623 0.519-7.379 1.821-11.878 0.91 1.626 0.907 9.129 0.911 10.505 0C88.596 64.47 90.972 65.682 94.722 64.902z"
            fill="#ffffff"
            data-fill-palette-color="quaternary"
          ></path>
        </svg>
      </g>
    </svg>
  </g>
</svg>
